<svg width="23" height="20" viewBox="0 0 23 20" fill="none" xmlns="http://www.w3.org/2000/svg">
<path d="M3.50926 3.89105H2.84534V5.23995H3.50926C3.84121 5.23995 4.12575 4.92867 4.12575 4.5655C4.12575 4.20234 3.84121 3.89105 3.50926 3.89105Z" fill="white"/>
<path d="M5.80928 1.81583H0.948454C0.426804 1.81583 0 2.28275 0 2.85344V8.19715C0 8.76784 0.426804 9.23476 0.948454 9.23476H2.79794V19.6628C2.79794 19.8444 2.94021 20 3.10619 20H3.69897C3.86495 20 4.00722 19.8444 4.00722 19.6628V9.20882H5.8567C6.37835 9.20882 6.80515 8.7419 6.80515 8.17121V2.85344C6.75773 2.28275 6.33093 1.81583 5.80928 1.81583ZM3.53299 6.14786H2.86907V7.88587H2.13402V3.13878H3.53299C4.29175 3.13878 4.90825 3.81323 4.90825 4.64332C4.90825 5.47341 4.29175 6.14786 3.53299 6.14786Z" fill="white"/>
<path d="M21.5773 10.1686H20.534L20.0123 7.73023C19.7278 6.38133 18.6371 5.44748 17.3804 5.44748H10.5752C9.31851 5.44748 8.22779 6.38133 7.94325 7.73023L7.4216 10.1686H6.3783C5.99892 10.1686 5.69067 10.5058 5.69067 10.9209V11.9066C5.69067 12.2957 5.9515 12.607 6.28346 12.6589L6.85253 12.7367C6.7814 12.9702 6.75768 13.2296 6.75768 13.5149V18.8586C6.73397 19.1959 6.9948 19.4553 7.27933 19.4553H9.15253C9.41335 19.4553 9.62676 19.2737 9.67418 18.9883L10.0536 17.0947H17.902L18.2814 18.9883C18.3288 19.2477 18.5422 19.4553 18.803 19.4553H20.6762C20.9608 19.4553 21.2216 19.1959 21.2216 18.8586V13.5149C21.2216 13.2555 21.1742 12.9961 21.1268 12.7367L21.6958 12.6589C22.0278 12.607 22.2886 12.2957 22.2886 11.9066V10.9209C22.2886 10.5058 21.9567 10.1686 21.5773 10.1686ZM9.5082 8.11933C9.62676 7.57459 10.0773 7.18548 10.5752 7.18548H17.3804C17.902 7.18548 18.3288 7.57459 18.4474 8.11933L18.8979 10.1946C18.969 10.5577 18.7319 10.895 18.4 10.895H9.57933C9.24737 10.895 8.98655 10.5577 9.0814 10.1946L9.5082 8.11933ZM11.3103 14.9416L8.93913 14.8379C8.74944 14.8379 8.58346 14.6563 8.55975 14.4488C8.53603 14.1116 8.53603 13.6187 8.58346 13.2036C8.60717 12.9442 8.84428 12.7886 9.05768 12.8664C9.79274 13.0739 10.8123 13.3852 11.2391 13.5149C11.3814 13.5409 11.4762 13.6706 11.5237 13.8262L11.6659 14.4488C11.7608 14.6822 11.5711 14.9676 11.3103 14.9416ZM19.3958 14.4488C19.3958 14.6563 19.2298 14.8379 19.0164 14.8379L16.6453 14.9416C16.3845 14.9416 16.1948 14.6822 16.2659 14.4228L16.4082 13.8003C16.4319 13.6446 16.5505 13.5409 16.6927 13.489C17.1433 13.3593 18.1628 13.0739 18.8742 12.8405C19.0876 12.7627 19.3247 12.9442 19.3484 13.1777C19.4195 13.5927 19.4195 14.1116 19.3958 14.4488Z" fill="white"/>
<path d="M20.8574 0.107676L18.7935 0.845664L16.9468 0.366341C16.3295 0.205864 15.6627 0.235425 15.0683 0.447636L14.8626 0.52154L16.6712 1.60477L15.3897 2.06297C15.2385 2.11682 15.062 2.10098 14.9299 2.02074C14.7267 1.89722 14.446 1.73779 14.0942 1.54775C13.9532 1.47174 13.7779 1.48018 13.6496 1.57098C13.5214 1.66072 13.4807 1.8022 13.5468 1.931L14.0688 2.94032C14.2034 3.20004 14.4511 3.40064 14.7673 3.50516C15.0836 3.60968 15.429 3.60546 15.7427 3.49355L17.9298 2.71122L17.4155 5.18807L17.6187 5.12894C18.1889 4.96424 18.6525 4.60422 18.8875 4.14179L19.995 1.97323L23 0.897396L22.9505 0.800265C22.6025 0.129848 21.6639 -0.18055 20.8574 0.107676Z" fill="white"/>
</svg>
