<svg width="24" height="21" viewBox="0 0 24 21" fill="none" xmlns="http://www.w3.org/2000/svg">
<path d="M22.1408 4.06452H17.5775V1.8629C17.5775 0.846774 16.7324 0 15.7183 0H7.94366C6.92958 0 6.08451 0.846774 6.08451 1.8629V4.06452H1.85915C0.84507 4.06452 0 4.91129 0 5.92742V19.1371C0 20.1532 0.84507 21 1.85915 21H22.1408C23.1549 21 24 20.1532 24 19.1371V5.92742C24 4.91129 23.1549 4.06452 22.1408 4.06452ZM7.09859 1.8629C7.09859 1.38871 7.47042 1.01613 7.94366 1.01613H15.7183C16.1915 1.01613 16.5634 1.38871 16.5634 1.8629V4.06452H7.09859V1.8629ZM3.21127 19.9839H1.85915C1.38592 19.9839 1.01408 19.6113 1.01408 19.1371V5.92742C1.01408 5.45323 1.38592 5.08065 1.85915 5.08065H3.21127V19.9839ZM19.7746 19.9839H4.22535V5.08065H19.7746V19.9839ZM22.9859 19.1371C22.9859 19.6113 22.6141 19.9839 22.1408 19.9839H20.7887V5.08065H22.1408C22.6141 5.08065 22.9859 5.45323 22.9859 5.92742V19.1371Z" fill="white"/>
</svg>
