<svg width="25" height="20" viewBox="0 0 25 20" fill="none" xmlns="http://www.w3.org/2000/svg">
<path d="M13.3431 0.0306549C13.6501 0.0445097 14.0602 0.0727138 14.5402 0.134565C15.5518 0.269158 16.5474 0.506546 17.512 0.843135C18.8816 1.32299 20.1793 1.99149 21.3686 2.8298C22.6344 3.71888 23.7686 4.78603 24.7369 5.99907C25.104 6.45578 25.0869 6.84272 24.6856 7.26529C24.422 7.54305 24.1584 7.8208 23.8947 8.09856C23.8293 8.17134 23.7487 8.22853 23.6588 8.26599C23.5689 8.30345 23.4719 8.32025 23.3748 8.31519C23.2777 8.31012 23.1829 8.28332 23.0972 8.2367C23.0116 8.19009 22.9372 8.12482 22.8795 8.04561C21.3902 6.12525 19.5479 4.67001 17.3072 3.75856C11.9398 1.57892 5.86254 3.24198 2.22785 7.87391C1.7063 8.53894 1.50589 8.54834 0.922757 7.93675C0.693023 7.69578 0.461333 7.45629 0.23502 7.21235C0.0901953 7.05553 0.00678386 6.85067 0.000396016 6.63609C-0.00599182 6.42151 0.0650818 6.21193 0.200315 6.04657C1.0171 5.04112 2.75868 3.04307 5.3537 1.75507C5.3537 1.75507 7.61977 0.630366 9.91711 0.216209C10.2803 0.150894 10.6381 0.104877 10.6381 0.104877C10.8101 0.0826102 11.1015 0.045994 11.4852 0.0222431C11.7398 0.00640909 12.0507 -0.00398186 12.4056 0.00146107L13.3431 0.0306549Z" fill="white"/>
<path d="M13.1109 19.8934C12.9433 19.9533 12.4755 20.0943 11.9637 19.9038C11.2838 19.6504 10.7906 18.9072 10.8674 18.0972C10.9422 17.3055 11.5302 16.6623 12.302 16.5658C12.9736 16.4812 13.5054 16.7538 13.8603 17.3248C14.049 17.6082 14.1491 17.9425 14.1476 18.2843C14.1462 18.6261 14.0431 18.9595 13.852 19.2412C13.6926 19.4881 13.4779 19.6934 13.2253 19.8404L13.1109 19.8934Z" fill="white"/>
<path d="M12.5122 5.61606C16.0682 5.71057 18.8886 7.23508 21.0202 10.101C21.2812 10.4523 21.2436 10.8977 20.9405 11.2252C20.6375 11.5528 20.3354 11.8685 20.0289 12.1852C19.6921 12.5345 19.3808 12.5103 19.1129 12.1035C18.3846 10.9981 17.4603 10.104 16.316 9.45085C12.7512 7.41668 8.30366 8.51071 5.9589 11.9902C5.90698 12.0763 5.84967 12.1589 5.78733 12.2376C5.58203 12.4717 5.28338 12.4989 5.06489 12.2807C4.70562 11.9224 4.35369 11.5553 4.01593 11.1763C3.74171 10.868 3.73585 10.4316 3.98807 10.0877C5.70277 7.76453 7.94146 6.28306 10.7794 5.77044C10.9828 5.73382 11.1871 5.70018 11.3924 5.67939C11.7639 5.63433 12.138 5.61317 12.5122 5.61606Z" fill="white"/>
<path d="M12.5464 11.2381C14.5695 11.2876 16.2495 12.1204 17.5712 13.7033C17.8537 14.0417 17.8346 14.4846 17.5277 14.8186C17.2124 15.162 16.8888 15.4975 16.5638 15.8315C16.2788 16.1244 15.9728 16.1076 15.723 15.7785C15.5122 15.488 15.2697 15.2224 15.0001 14.9868C13.2893 13.5543 10.8566 13.7993 9.45618 15.5445C9.39361 15.6222 9.33643 15.7043 9.27386 15.7825C9.01773 16.1021 8.71712 16.1199 8.43117 15.8255C8.11248 15.4957 7.79688 15.1641 7.48437 14.831C7.15199 14.4727 7.14613 14.0338 7.46433 13.6592C8.79337 12.0956 10.4719 11.2787 12.5464 11.2381Z" fill="white"/>
</svg>
